<?xml version="1.0" encoding="utf-8"?>
<!-- Generator: Adobe Illustrator 22.1.0, SVG Export Plug-In . SVG Version: 6.00 Build 0)  -->
<svg version="1.1" id="Layer_1" xmlns="http://www.w3.org/2000/svg" xmlns:xlink="http://www.w3.org/1999/xlink" x="0px" y="0px"
	 width="310px" height="67px" viewBox="0 0 310 67" style="enable-background:new 0 0 310 67;" xml:space="preserve">
<style type="text/css">
	.Drop_x0020_Shadow{fill:none;}
	.Outer_x0020_Glow_x0020_5_x0020_pt{fill:none;}
	.Blue_x0020_Neon{fill:none;stroke:#8AACDA;stroke-width:7;stroke-linecap:round;stroke-linejoin:round;}
	.Chrome_x0020_Highlight{fill:url(#SVGID_1_);stroke:#FFFFFF;stroke-width:0.3629;stroke-miterlimit:1;}
	.Jive_GS{fill:#FFDD00;}
	.Alyssa_GS{fill:#A6D0E4;}
	.st0{fill:#FFFFFF;}
	.st1{fill:#BBDDE6;}
	.st2{fill:#006633;}
	.st3{fill:#038442;}
	.st4{fill:#B7B7B7;}
	.st5{fill:#48A23F;}
	.st6{fill:#0072CE;}
	.st7{fill:#231F20;}
</style>
<linearGradient id="SVGID_1_" gradientUnits="userSpaceOnUse" x1="0" y1="0" x2="6.123234e-17" y2="-1">
	<stop  offset="0" style="stop-color:#656565"/>
	<stop  offset="0.618" style="stop-color:#1B1B1B"/>
	<stop  offset="0.6292" style="stop-color:#545454"/>
	<stop  offset="0.9831" style="stop-color:#3E3E3E"/>
</linearGradient>
<g id="Group_425" transform="translate(53 71)">
	<path id="Path_619" class="st0" d="M16.9-33.7v12.3h-5.4v-32.1h17.7v5.2H16.9v9.5h11.4v5.2L16.9-33.7L16.9-33.7z"/>
	<path id="Path_620" class="st0" d="M53.5-27.2c-1.5-2.5-2.8-5.1-3.9-7.8c3.1-1.5,5-4.6,5-8.7c0-6.2-4.2-9.9-10.3-9.9H34v32.2h5.4
		v-12.4h4.7c1.4,2.9,4.4,9.1,6.4,11.3c1.9,2.1,5.7,1.5,5.7,1.5l0.7-5.2C55.7-25.6,54.2-26.1,53.5-27.2z M39.4-48.4h4.7
		c2.8,0,4.9,1.6,4.9,4.8c0,3.2-2.1,4.7-4.9,4.7h-4.7V-48.4z"/>
	<path id="Path_621" class="st0" d="M73.9-54c8.9-0.2,16.3,7,16.5,15.9c0,0.2,0,0.4,0,0.6c0,9.1-7.4,16.5-16.5,16.5
		s-16.5-7.4-16.5-16.5c-0.2-8.9,6.9-16.4,15.8-16.6C73.4-54,73.6-54,73.9-54z M73.9-26.2c6.1,0,11-4.9,11-11c0-0.1,0-0.1,0-0.2
		c0-6.1-4.9-11-11-11c-6.1,0-11,4.9-11,11c-0.1,6,4.6,11,10.7,11.2C73.7-26.2,73.8-26.2,73.9-26.2z"/>
	<path id="Path_622" class="st0" d="M99.5-42.2v20.8h-5.4v-28.3l-2.2-3.4v-0.4h6.4l16.3,22.8v-22.8h5.4v32.1h-5.4L99.5-42.2z"/>
	<path id="Path_623" class="st0" d="M132-48.4h-8.2v-5.2h21.7v5.2h-8.2v27h-5.4L132-48.4L132-48.4z"/>
	<path id="Path_624" class="st0" d="M149.4-21.4v-32.1H167v5.2h-12.4v8.2H166v5.1h-11.4v8.5H167v5.2L149.4-21.4L149.4-21.4z"/>
	<path id="Path_625" class="st0" d="M178.1-42.2v20.8h-5.4v-28.3l-2.2-3.4v-0.4h6.4l16.3,22.8v-22.8h5.4v32.1h-5.4L178.1-42.2z"/>
	<path id="Path_626" class="st0" d="M223.4-29.3h-12.2l-2.9,7.9h-6l12-32.1h6l12,32.1h-6L223.4-29.3z M213.1-34.5h8.7l-4.3-12
		L213.1-34.5z"/>
	<path id="Path_627" class="st0" d="M257-22.8c-2.4,1.3-5.1,2-7.8,2c-8.9,0.2-16.3-7-16.5-15.9c0-0.2,0-0.4,0-0.6
		c-0.2-8.9,6.8-16.3,15.7-16.6c0.3,0,0.5,0,0.8,0c2.7,0,5.4,0.7,7.8,2v6.2c-2.2-1.8-4.9-2.8-7.8-2.8c-6,0-11,4.8-11,10.9
		c0,0.1,0,0.2,0,0.3c-0.1,6,4.6,11,10.7,11.2c0.1,0,0.2,0,0.3,0c2.9,0.1,5.6-0.9,7.8-2.8L257-22.8L257-22.8z"/>
	<path id="Path_628" class="st1" d="M-5.8-58.9c-6.1-4.6-13.4-7.2-21.1-7.3c-7.6,0.1-15,2.7-21.1,7.3c-0.6,0.5-1,1.2-1,2v21.6
		c0.7,0.4,1.5,0.7,2.3,0.9c0.8-0.4,1.6-1,2.2-1.7l0,0c0.2-0.2,0.4-0.4,0.5-0.7c-0.5-0.2-1-0.4-1.5-0.6v-0.1c0.8-0.4,1.4-1.1,1.8-1.9
		l0,0c-0.4-0.1-0.7-0.3-1-0.5V-40c0.7-0.5,1.3-1.2,1.7-1.9l0,0c-0.3-0.1-0.7-0.2-1-0.4v-0.1c0.5-0.5,1-1.1,1.3-1.7
		c-0.3-0.1-0.6-0.2-0.8-0.3v-0.1c0.5-0.5,0.9-1.1,1.2-1.8l0,0c-0.2,0-0.4-0.1-0.6-0.1c0,0-0.1-0.1,0-0.1c0.7-1.3,1.1-2.7,1.3-4.1
		c0-0.1,0.1-0.1,0.1,0c0.2,1.3,0.6,2.5,1.2,3.7v0.1c-0.2,0-0.4,0.1-0.6,0.1l0,0c0.3,0.6,0.7,1.2,1.2,1.7v0.1
		c-0.2,0.1-0.5,0.2-0.8,0.2c0.3,0.6,0.8,1.2,1.3,1.6v0.1c-0.3,0.1-0.6,0.3-0.9,0.4c0.2,0.4,0.5,0.8,0.9,1.1c0.7-0.7,1.4-1.4,1.9-2.3
		l-1.5-0.6c-0.1,0-0.1-0.1,0-0.2c0.8-0.8,1.5-1.6,2.1-2.6c-0.4-0.1-0.8-0.2-1.1-0.4c-0.1,0-0.1-0.1,0-0.2c0.8-0.8,1.5-1.8,1.9-2.9
		l0,0c-0.3,0-0.6-0.1-0.9-0.2c-0.1,0-0.1,0-0.1-0.1l0,0c1-1.8,1.6-3.8,1.8-5.8c0-0.1,0.2-0.1,0.2,0c0.2,2.2,0.9,4.3,1.9,6.2
		c0,0.1,0,0.1-0.1,0.1c-0.3,0.1-0.6,0.1-0.9,0.2c0.4,1.2,1.1,2.2,2,3.1v0.2c-0.4,0.1-0.7,0.3-1.1,0.4c0.5,1,1.2,1.9,2.1,2.6
		c0.1,0,0,0.1,0,0.2c-0.4,0.2-0.8,0.4-1.3,0.6l0.9,1.2l0,0c0.7-0.6,1.3-1.4,1.7-2.2c-0.3-0.1-0.5-0.2-0.8-0.3c0,0-0.1-0.1,0-0.1
		c0.7-0.7,1.3-1.5,1.6-2.5c-0.2,0-0.5-0.1-0.7-0.1c0,0-0.1-0.1,0-0.1c0.8-1.5,1.3-3.2,1.5-4.9c0-0.1,0.1-0.1,0.2,0
		c0.2,1.6,0.7,3.2,1.5,4.7c0,0.1,0,0.1-0.1,0.1l0,0c-0.2,0.1-0.5,0.1-0.7,0.1l0,0c0.4,0.8,0.9,1.6,1.5,2.3v0.1l-0.9,0.3
		c0.4,0.8,1,1.5,1.6,2.1v0.1c-0.3,0.2-0.6,0.3-1,0.4c0.4,0.7,0.9,1.3,1.5,1.8c0.2-0.3,0.4-0.7,0.6-1c-0.3-0.1-0.6-0.2-1-0.3
		c0,0-0.1-0.1,0-0.1c0.5-0.5,1-1.2,1.3-1.9l0,0c-0.2,0-0.4-0.1-0.6-0.1c0,0-0.1-0.1,0-0.1c0.6-1.2,1-2.5,1.2-3.8
		c0-0.1,0.1-0.1,0.1,0c0.1,1.4,0.5,2.8,1.2,4v0.1c-0.2,0-0.3,0.1-0.5,0.1c0.3,0.8,0.7,1.4,1.3,2v0.1l-0.9,0.3
		c0.3,0.7,0.8,1.4,1.4,1.9v0.1c-0.3,0.2-0.6,0.3-1,0.4c0.4,0.7,1,1.3,1.6,1.8v0.1c-0.4,0.2-0.8,0.4-1.2,0.5c0.2,0.4,0.5,0.8,0.8,1.2
		l0,0c0.4,0.5,0.8,0.9,1.3,1.2c4.4-1.3,8.6-3,14.3-3.3v-20C-4.8-57.7-5.2-58.4-5.8-58.9z"/>
	<path id="Path_629" class="st2" d="M-40-33.9c-0.6-0.2-1.2-0.5-1.7-0.9c-0.1,0-0.1-0.1,0-0.2c1-0.6,1.9-1.3,2.6-2.2
		c-0.6-0.2-1.2-0.5-1.7-0.8c-0.1,0-0.1-0.1,0-0.2c0.8-0.5,1.5-1.2,2.1-2l-1.2-0.6c-0.1,0-0.1-0.1,0-0.2c0.2-0.2,0.4-0.3,0.6-0.5
		c-0.3-0.3-0.6-0.7-0.9-1.1c0.3-0.1,0.6-0.2,0.9-0.4v-0.1c-0.5-0.5-1-1-1.3-1.6c0.3-0.1,0.5-0.1,0.8-0.2V-45
		c-0.5-0.5-0.9-1.1-1.2-1.7l0,0c0.2,0,0.4-0.1,0.6-0.1c0,0,0.1-0.1,0-0.1c-0.6-1.2-1-2.4-1.2-3.7c0-0.1-0.1-0.1-0.1,0
		c0,1.5-0.4,2.9-1.2,4.2v0.1c0.2,0,0.4,0.1,0.6,0.1l0,0c-0.3,0.7-0.7,1.3-1.2,1.8v0.1c0.3,0.1,0.5,0.2,0.8,0.3
		c-0.3,0.6-0.8,1.2-1.3,1.7v0.1c0.3,0.2,0.6,0.3,1,0.4l0,0c-0.4,0.8-1,1.4-1.7,1.9v0.1c0.3,0.2,0.7,0.3,1,0.5l0,0
		c-0.5,0.7-1.1,1.4-1.8,1.9v0.1c0.5,0.3,1,0.5,1.5,0.6c-0.2,0.2-0.4,0.4-0.5,0.7l0,0c-0.6,0.7-1.3,1.3-2.2,1.7
		c1.4,0.5,3.1,1.1,5.1,1.7C-41-33-40.5-33.5-40-33.9z"/>
	<path id="Path_630" class="st2" d="M-30.2-40.7c0.1,0,0.1,0.1,0,0.2c-0.5,0.3-1,0.5-1.5,0.7c0.7,0.9,1.5,1.7,2.5,2.3
		c0.1,0,0.1,0.1,0,0.2c-0.5,0.3-1.1,0.6-1.7,0.8c0.7,0.9,1.6,1.6,2.6,2.2c0.1,0,0.1,0.1,0,0.2c-0.6,0.4-1.2,0.7-1.8,0.9
		c0.6,0.6,1.3,1.2,2,1.6c0.2,0,0.3-0.1,0.5-0.1c0.6-0.4,1.1-0.9,1.6-1.4c-0.4-0.1-0.8-0.3-1.2-0.5v-0.1c0.8-0.5,1.5-1.2,1.9-2.1
		c-0.4-0.1-0.7-0.3-1-0.5v-0.1c0.8-0.5,1.4-1.3,1.8-2.1c-0.3-0.1-0.7-0.2-1-0.4V-39c0.3-0.3,0.6-0.6,0.8-0.9
		c-0.6-0.5-1.1-1.1-1.5-1.8c0.3-0.1,0.7-0.2,1-0.4c0,0,0.1-0.1,0-0.1c-0.7-0.6-1.2-1.3-1.6-2.1l0.9-0.3c0,0,0.1-0.1,0-0.1
		c-0.7-0.6-1.2-1.4-1.5-2.3l0,0c0.2,0,0.5-0.1,0.7-0.1c0.1,0,0.1,0,0.1-0.1l0,0c-0.8-1.4-1.3-3-1.5-4.7c0-0.1-0.1-0.1-0.2,0
		c-0.2,1.7-0.7,3.4-1.5,4.9v0.1c0.2,0,0.4,0.1,0.7,0.1c-0.4,0.9-0.9,1.8-1.6,2.5v0.1c0.3,0.1,0.5,0.2,0.8,0.3
		c-0.4,0.8-1,1.6-1.7,2.2l0,0C-31.1-41.3-30.7-41-30.2-40.7z"/>
	<path id="Path_631" class="st3" d="M-39.9-40.7l1.2,0.6c-0.6,0.8-1.3,1.4-2.1,2c-0.1,0-0.1,0.1,0,0.2c0.5,0.3,1.1,0.6,1.7,0.8
		c-0.7,0.9-1.6,1.7-2.6,2.2c-0.1,0-0.1,0.1,0,0.2c0.5,0.3,1.1,0.6,1.7,0.9c-0.5,0.5-1,0.9-1.5,1.3c2,0.6,4.2,1.2,6.7,1.7
		c1.8-0.2,4.2-0.4,6.8-0.8c-0.7-0.5-1.4-1-2-1.6c0.6-0.2,1.2-0.5,1.8-0.9c0.1,0,0.1-0.1,0-0.2c-1-0.5-1.9-1.3-2.6-2.2
		c0.6-0.2,1.2-0.5,1.7-0.8c0.1,0,0.1-0.1,0-0.2c-1-0.6-1.8-1.4-2.5-2.3c0.5-0.2,1-0.4,1.5-0.7c0.1,0,0.1-0.1,0-0.2
		c-0.5-0.4-1-0.8-1.4-1.3l-0.9-1.2c0.5-0.2,0.9-0.4,1.3-0.6c0.1,0,0.1-0.1,0-0.2c-0.8-0.8-1.5-1.6-2.1-2.6c0.4-0.1,0.8-0.2,1.1-0.4
		c0.1,0,0.1-0.1,0-0.2c-0.9-0.9-1.6-1.9-2-3.1c0.3,0,0.6-0.1,0.9-0.2c0.1,0,0.1,0,0.1-0.1l0,0c-1-1.9-1.7-4-1.9-6.2
		c0-0.1-0.2-0.1-0.2,0c-0.2,2-0.8,4-1.8,5.8c0,0.1,0,0.1,0.1,0.1c0.3,0.1,0.6,0.1,0.9,0.2l0,0c-0.4,1.1-1.1,2.1-1.9,2.9v0.2
		c0.4,0.1,0.7,0.3,1.1,0.4c-0.5,1-1.2,1.9-2.1,2.6v0.2c0.5,0.2,1,0.4,1.5,0.6c-0.5,0.9-1.1,1.7-1.9,2.3c-0.2,0.2-0.4,0.3-0.6,0.5
		C-39.9-40.8-39.9-40.7-39.9-40.7z"/>
	<path id="Path_632" class="st3" d="M-25.6-39.2L-25.6-39.2c0.3,0.3,0.6,0.4,1,0.5c-0.4,0.8-1,1.6-1.8,2.1v0.1
		c0.3,0.2,0.7,0.3,1,0.5c-0.4,0.9-1.1,1.6-1.9,2.1v0.1c0.4,0.2,0.8,0.4,1.2,0.5c-0.5,0.5-1,1-1.6,1.4c2.3-0.4,4.6-0.8,6.6-1.3
		c0.6-0.2,1.2-0.3,1.9-0.5c-0.5-0.3-0.9-0.7-1.3-1.2l0,0c-0.3-0.4-0.6-0.8-0.8-1.2c0.4-0.1,0.8-0.3,1.2-0.5v-0.1
		c-0.7-0.5-1.2-1.1-1.6-1.8c0.3-0.1,0.7-0.2,1-0.4V-39c-0.6-0.5-1.1-1.2-1.4-1.9l0.9-0.3c0,0,0.1-0.1,0-0.1c-0.6-0.6-1-1.2-1.3-2
		c0.2,0,0.3-0.1,0.5-0.1c0,0,0.1-0.1,0-0.1c-0.6-1.3-1-2.6-1.2-4c0-0.1-0.1-0.1-0.1,0c-0.2,1.3-0.6,2.6-1.2,3.8v0.1
		c0.2,0,0.4,0.1,0.6,0.1l0,0c-0.3,0.7-0.7,1.4-1.3,1.9v0.1c0.3,0.1,0.6,0.2,1,0.3c-0.2,0.3-0.4,0.7-0.6,1
		C-25-39.8-25.2-39.4-25.6-39.2z"/>
	<path id="Path_633" class="st4" d="M-21-33.1c-2.2,0.6-4.4,1-6.6,1.3c-0.2,0-0.3,0.1-0.5,0.1c-2.5,0.4-5,0.7-6.8,0.8
		c9.8,2.1,19.9,2.7,29.9,1.7c0.1-0.5,0.1-1.1,0.1-1.6V-37c-5.8,0.3-10,2-14.3,3.3C-19.8-33.5-20.4-33.3-21-33.1z"/>
	<path id="Path_634" class="st5" d="M-34.9-30.9c-2.5-0.5-4.7-1.1-6.7-1.7s-3.7-1.2-5.1-1.7c-0.9-0.3-1.6-0.7-2.3-0.9v4.6
		c0,3.8,2.4,7.8,7.1,12c20.2,0.3,34.4-8.2,36.6-10c0-0.1,0.1-0.3,0.1-0.4C-15.1-28.1-25.1-28.8-34.9-30.9z"/>
	<path id="Path_678" class="st0" d="M-1.6-61.2c-7.1-6-16-9.3-25.3-9.4c-9.2,0.1-18.1,3.4-25.2,9.4c-0.6,0.5-1,1.2-0.9,2v29
		C-53-17.4-33-7-27.9-4.6c0.7,0.3,1.5,0.3,2.2,0c5-2.4,25.1-13,25.1-25.6v-29C-0.7-60-1-60.7-1.6-61.2z M-3.6-36.8v6.5
		c0,0.5-0.1,1.2-0.1,1.7c0,0.1-0.1,0.3-0.1,0.4c-1.2,5.4-6.7,10.4-11.5,13.8C-18.6-12-22-9.8-25.6-8c-0.7,0.4-1.6,0.4-2.3,0
		c-4.1-2-7.9-4.4-11.6-7.2c-1.1-0.8-2-1.6-2.9-2.4c-4.9-4.4-7.5-8.6-7.5-12.7v-27.6c0-0.8,0.4-1.6,1.1-2.1
		c6.4-4.9,14.2-7.6,22.2-7.7c8,0.1,15.8,2.8,22.2,7.7c0.6,0.5,1,1.3,1.1,2.1v21.1L-3.6-36.8z"/>
	<path id="Path_635" class="st6" d="M-41.8-18.7c0.9,0.8,1.8,1.5,2.8,2.3c3.5,2.6,7.1,4.9,11,6.8c0.7,0.4,1.5,0.4,2.2,0
		c3.4-1.7,6.7-3.8,9.8-6c4.5-3.3,9.7-8,10.9-13.1C-7.4-26.9-21.6-18.4-41.8-18.7z M-26.9-11.3c-1.5,0-3.6-1.8-3.6-1.8l0.4-0.2
		c0.2-0.1,0.1-0.1,0.1-0.4l-0.3-0.9l1,0.2c0.1,0,0.2,0,0.2-0.1l0.1-0.4l0.8,0.9c0.1,0.1,0.3,0.1,0.3-0.2l-0.3-1.8l0.4,0.2
		c0.1,0.1,0.3,0.1,0.3,0l0.6-1.2l0.6,1.2c0.1,0.1,0.2,0.1,0.3,0c0,0,0,0,0,0l0.4-0.2l-0.3,1.8c-0.1,0.3,0.2,0.3,0.3,0.2l0.8-0.9
		l0.1,0.4c0,0.1,0.1,0.1,0.2,0.1l1-0.2l-0.2,0.9c-0.1,0.2-0.1,0.3,0.1,0.4l0.4,0.2C-23.3-13.2-25.4-11.3-26.9-11.3z"/>
	<path id="Path_636" d="M-2.9-60.1c-6.7-5.7-15.2-8.8-24-8.9c-8.8,0.1-17.2,3.2-23.9,8.9c-0.6,0.5-0.9,1.2-0.9,1.9v27.5
		c0,12.2,19,22,23.8,24.3c0.7,0.3,1.4,0.3,2.1,0C-21-8.7-2-18.7-2-30.7v-27.5C-2-58.9-2.3-59.6-2.9-60.1z M-4.8-36.9v6.2
		c0,0.5-0.1,1.1-0.1,1.6c0,0.1-0.1,0.3-0.1,0.4c-1.1,5.1-6.4,9.9-10.9,13.1c-3.1,2.2-6.4,4.2-9.8,6c-0.7,0.4-1.5,0.4-2.2,0
		c-3.9-1.9-7.5-4.2-11-6.8c-1-0.8-1.9-1.5-2.8-2.3c-4.7-4.2-7.1-8.2-7.1-12v-26.2c0-0.8,0.4-1.5,1-2c6.1-4.6,13.4-7.2,21.1-7.3
		c7.6,0.1,15,2.7,21.1,7.3c0.6,0.5,1,1.2,1,2v20H-4.8z"/>
	<path id="Path_637" class="st7" d="M-23.7-13.7l0.3-0.9l-1,0.2c-0.1,0-0.2,0-0.2-0.1l-0.2-0.5l-0.8,0.9c-0.1,0.1-0.3,0.1-0.3-0.2
		l0.3-1.8l-0.4,0.2c-0.1,0.1-0.3,0.1-0.3,0l-0.6-1.1l-0.6,1.2c-0.1,0.1-0.2,0.1-0.3,0c0,0,0,0,0,0l-0.4-0.2l0.3,1.8
		c0.1,0.3-0.2,0.3-0.3,0.2l-0.8-1l-0.1,0.4c0,0.1-0.1,0.1-0.2,0.1l-1-0.2l0.3,0.9c0.1,0.2,0.1,0.3-0.1,0.4l-0.4,0.2
		c0,0,2,1.8,3.6,1.8c1.5,0,3.6-1.8,3.6-1.8l-0.4-0.1C-23.8-13.4-23.8-13.5-23.7-13.7z"/>
</g>
</svg>
